<svg xmlns="http://www.w3.org/2000/svg" viewBox="0 0 1000 1000" role="img" aria-label="Dragon yin-yang logo">
  <defs>
    <style>
      .blk { fill: #000; }
      .wht { fill: #fff; }
      .line { stroke: #fff; stroke-width: 26; fill: none; stroke-linecap: round; stroke-linejoin: round; }
      .line2 { stroke: #000; stroke-width: 26; fill: none; stroke-linecap: round; stroke-linejoin: round; }
    </style>
  </defs>

  <circle cx="500" cy="500" r="480" class="blk"/>
  <circle cx="500" cy="500" r="468" class="wht"/>

  <path class="blk" d="
    M 500 38
    A 462 462 0 0 1 500 962
    A 245 245 0 0 0 500 500
    A 245 245 0 0 1 500 38
    Z"/>
  <path class="wht" d="
    M 500 38
    A 462 462 0 0 0 500 962
    A 245 245 0 0 1 500 500
    A 245 245 0 0 0 500 38
    Z"/>

  <path class="blk" d="
    M 710 140
    A 360 360 0 0 1 865 500
    A 360 360 0 0 1 710 860
    A 275 275 0 0 0 500 500
    A 275 275 0 0 1 710 140
    Z"/>
  <path class="wht" d="
    M 290 140
    A 360 360 0 0 0 135 500
    A 360 360 0 0 0 290 860
    A 275 275 0 0 1 500 500
    A 275 275 0 0 0 290 140
    Z"/>

  <circle cx="500" cy="300" r="62" class="wht"/>
  <circle cx="500" cy="700" r="62" class="blk"/>

  <path class="line" d="M 640 250 L 720 210"/>
  <circle cx="750" cy="198" r="16" class="wht"/>
  <path class="line" d="M 730 340 L 810 300"/>
  <circle cx="840" cy="286" r="16" class="wht"/>
  <path class="line" d="M 780 450 L 870 430"/>
  <circle cx="900" cy="424" r="16" class="wht"/>
  <path class="line" d="M 785 560 L 875 590"/>
  <circle cx="905" cy="600" r="16" class="wht"/>
  <path class="line" d="M 720 680 L 790 740"/>
  <circle cx="812" cy="760" r="16" class="wht"/>
  <path class="line" d="M 620 770 L 680 820"/>
  <circle cx="700" cy="838" r="16" class="wht"/>

  <path class="line2" d="M 360 250 L 280 210"/>
  <circle cx="250" cy="198" r="16" class="blk"/>
  <path class="line2" d="M 270 340 L 190 300"/>
  <circle cx="160" cy="286" r="16" class="blk"/>
  <path class="line2" d="M 220 450 L 130 430"/>
  <circle cx="100" cy="424" r="16" class="blk"/>
  <path class="line2" d="M 215 560 L 125 590"/>
  <circle cx="95" cy="600" r="16" class="blk"/>
  <path class="line2" d="M 280 680 L 210 740"/>
  <circle cx="188" cy="760" r="16" class="blk"/>
  <path class="line2" d="M 380 770 L 320 820"/>
  <circle cx="300" cy="838" r="16" class="blk"/>
</svg>
